<svg width="192" height="200" viewBox="0 0 192 200" fill="none" xmlns="http://www.w3.org/2000/svg">
<path d="M180 100C180 144.183 144.183 180 100 180C55.8172 180 20 144.183 20 100C20 55.8172 55.8172 20 100 20C144.183 20 180 55.8172 180 100ZM29.6 100C29.6 138.881 61.1192 170.4 100 170.4C138.881 170.4 170.4 138.881 170.4 100C170.4 61.1192 138.881 29.6 100 29.6C61.1192 29.6 29.6 61.1192 29.6 100Z" fill="#C2BEBE"/>
<path d="M113.399 173.997C113.871 176.605 116.373 178.351 118.949 177.724C132.538 174.411 145.05 167.585 155.212 157.893C166.535 147.095 174.442 133.213 177.956 117.967C181.47 102.72 180.436 86.7783 174.982 72.1135C169.528 57.4488 159.894 44.7052 147.271 35.46C134.649 26.2148 119.592 20.8739 103.966 20.0983C88.3387 19.3228 72.8274 23.1465 59.3515 31.0964C45.8756 39.0463 35.0267 50.7733 28.1475 64.826C21.9732 77.4385 19.2401 91.4276 20.1813 105.383C20.3596 108.028 22.7793 109.887 25.4089 109.55C28.0384 109.213 29.8798 106.808 29.7231 104.162C29.007 92.0724 31.4212 79.9727 36.7698 69.0468C42.8235 56.6805 52.3705 46.3608 64.2293 39.3649C76.0881 32.369 89.7381 29.004 103.49 29.6865C117.241 30.3691 130.491 35.069 141.599 43.2048C152.707 51.3406 161.185 62.5549 165.984 75.4599C170.784 88.3649 171.694 102.394 168.602 115.811C165.509 129.228 158.551 141.443 148.587 150.946C139.784 159.341 128.976 165.293 117.234 168.258C114.664 168.907 112.926 171.388 113.399 173.997Z" fill="#FC8686"/>
<path d="M83.524 93.84C84.804 92.7733 85.824 91.8867 86.584 91.18C87.344 90.46 87.9773 89.7133 88.484 88.94C88.9907 88.1667 89.244 87.4067 89.244 86.66C89.244 85.98 89.084 85.4467 88.764 85.06C88.444 84.6733 87.9507 84.48 87.284 84.48C86.6173 84.48 86.104 84.7067 85.744 85.16C85.384 85.6 85.1973 86.2067 85.184 86.98H82.464C82.5173 85.38 82.9907 84.1667 83.884 83.34C84.7907 82.5133 85.9373 82.1 87.324 82.1C88.844 82.1 90.0107 82.5067 90.824 83.32C91.6373 84.12 92.044 85.18 92.044 86.5C92.044 87.54 91.764 88.5333 91.204 89.48C90.644 90.4267 90.004 91.2533 89.284 91.96C88.564 92.6533 87.624 93.4933 86.464 94.48H92.364V96.8H82.484V94.72L83.524 93.84ZM101.688 86.06C101.555 85.5 101.322 85.08 100.988 84.8C100.668 84.52 100.202 84.38 99.5884 84.38C98.6684 84.38 97.9884 84.7533 97.5484 85.5C97.1217 86.2333 96.9017 87.4333 96.8884 89.1C97.2084 88.5667 97.675 88.1533 98.2884 87.86C98.9017 87.5533 99.5684 87.4 100.288 87.4C101.155 87.4 101.922 87.5867 102.588 87.96C103.255 88.3333 103.775 88.88 104.148 89.6C104.522 90.3067 104.708 91.16 104.708 92.16C104.708 93.1067 104.515 93.9533 104.128 94.7C103.755 95.4333 103.202 96.0067 102.468 96.42C101.735 96.8333 100.862 97.04 99.8484 97.04C98.4617 97.04 97.3684 96.7333 96.5684 96.12C95.7817 95.5067 95.2284 94.6533 94.9084 93.56C94.6017 92.4533 94.4484 91.0933 94.4484 89.48C94.4484 87.04 94.8684 85.2 95.7084 83.96C96.5484 82.7067 97.875 82.08 99.6884 82.08C101.088 82.08 102.175 82.46 102.948 83.22C103.722 83.98 104.168 84.9267 104.288 86.06H101.688ZM99.6484 89.7C98.9417 89.7 98.3484 89.9067 97.8684 90.32C97.3884 90.7333 97.1484 91.3333 97.1484 92.12C97.1484 92.9067 97.3684 93.5267 97.8084 93.98C98.2617 94.4333 98.895 94.66 99.7084 94.66C100.428 94.66 100.995 94.44 101.408 94C101.835 93.56 102.048 92.9667 102.048 92.22C102.048 91.4467 101.842 90.8333 101.428 90.38C101.028 89.9267 100.435 89.7 99.6484 89.7ZM111.581 85.74C112.408 85.74 113.135 85.9067 113.761 86.24C114.388 86.56 114.881 86.98 115.241 87.5V85.92H118.061V97.08C118.061 98.1067 117.855 99.02 117.441 99.82C117.028 100.633 116.408 101.273 115.581 101.74C114.755 102.22 113.755 102.46 112.581 102.46C111.008 102.46 109.715 102.093 108.701 101.36C107.701 100.627 107.135 99.6267 107.001 98.36H109.781C109.928 98.8667 110.241 99.2667 110.721 99.56C111.215 99.8667 111.808 100.02 112.501 100.02C113.315 100.02 113.975 99.7733 114.481 99.28C114.988 98.8 115.241 98.0667 115.241 97.08V95.36C114.881 95.88 114.381 96.3133 113.741 96.66C113.115 97.0067 112.395 97.18 111.581 97.18C110.648 97.18 109.795 96.94 109.021 96.46C108.248 95.98 107.635 95.3067 107.181 94.44C106.741 93.56 106.521 92.5533 106.521 91.42C106.521 90.3 106.741 89.3067 107.181 88.44C107.635 87.5733 108.241 86.9067 109.001 86.44C109.775 85.9733 110.635 85.74 111.581 85.74ZM115.241 91.46C115.241 90.78 115.108 90.2 114.841 89.72C114.575 89.2267 114.215 88.8533 113.761 88.6C113.308 88.3333 112.821 88.2 112.301 88.2C111.781 88.2 111.301 88.3267 110.861 88.58C110.421 88.8333 110.061 89.2067 109.781 89.7C109.515 90.18 109.381 90.7533 109.381 91.42C109.381 92.0867 109.515 92.6733 109.781 93.18C110.061 93.6733 110.421 94.0533 110.861 94.32C111.315 94.5867 111.795 94.72 112.301 94.72C112.821 94.72 113.308 94.5933 113.761 94.34C114.215 94.0733 114.575 93.7 114.841 93.22C115.108 92.7267 115.241 92.14 115.241 91.46ZM70.2171 117.52C70.5771 117.013 71.0704 116.593 71.6971 116.26C72.3371 115.913 73.0638 115.74 73.8771 115.74C74.8238 115.74 75.6771 115.973 76.4371 116.44C77.2104 116.907 77.8171 117.573 78.2571 118.44C78.7104 119.293 78.9371 120.287 78.9371 121.42C78.9371 122.553 78.7104 123.56 78.2571 124.44C77.8171 125.307 77.2104 125.98 76.4371 126.46C75.6771 126.94 74.8238 127.18 73.8771 127.18C73.0638 127.18 72.3438 127.013 71.7171 126.68C71.1038 126.347 70.6038 125.927 70.2171 125.42V132.28H67.4171V115.92H70.2171V117.52ZM76.0771 121.42C76.0771 120.753 75.9371 120.18 75.6571 119.7C75.3904 119.207 75.0304 118.833 74.5771 118.58C74.1371 118.327 73.6571 118.2 73.1371 118.2C72.6304 118.2 72.1504 118.333 71.6971 118.6C71.2571 118.853 70.8971 119.227 70.6171 119.72C70.3504 120.213 70.2171 120.793 70.2171 121.46C70.2171 122.127 70.3504 122.707 70.6171 123.2C70.8971 123.693 71.2571 124.073 71.6971 124.34C72.1504 124.593 72.6304 124.72 73.1371 124.72C73.6571 124.72 74.1371 124.587 74.5771 124.32C75.0304 124.053 75.3904 123.673 75.6571 123.18C75.9371 122.687 76.0771 122.1 76.0771 121.42ZM83.7718 112.2V127H80.9718V112.2H83.7718ZM85.8182 121.42C85.8182 120.3 86.0382 119.307 86.4782 118.44C86.9315 117.573 87.5382 116.907 88.2982 116.44C89.0715 115.973 89.9315 115.74 90.8782 115.74C91.7049 115.74 92.4249 115.907 93.0382 116.24C93.6649 116.573 94.1649 116.993 94.5382 117.5V115.92H97.3582V127H94.5382V125.38C94.1782 125.9 93.6782 126.333 93.0382 126.68C92.4115 127.013 91.6849 127.18 90.8582 127.18C89.9249 127.18 89.0715 126.94 88.2982 126.46C87.5382 125.98 86.9315 125.307 86.4782 124.44C86.0382 123.56 85.8182 122.553 85.8182 121.42ZM94.5382 121.46C94.5382 120.78 94.4049 120.2 94.1382 119.72C93.8715 119.227 93.5115 118.853 93.0582 118.6C92.6049 118.333 92.1182 118.2 91.5982 118.2C91.0782 118.2 90.5982 118.327 90.1582 118.58C89.7182 118.833 89.3582 119.207 89.0782 119.7C88.8115 120.18 88.6782 120.753 88.6782 121.42C88.6782 122.087 88.8115 122.673 89.0782 123.18C89.3582 123.673 89.7182 124.053 90.1582 124.32C90.6115 124.587 91.0915 124.72 91.5982 124.72C92.1182 124.72 92.6049 124.593 93.0582 124.34C93.5115 124.073 93.8715 123.7 94.1382 123.22C94.4049 122.727 94.5382 122.14 94.5382 121.46ZM104.333 127.18C103.426 127.18 102.613 127.02 101.893 126.7C101.173 126.367 100.6 125.92 100.173 125.36C99.7596 124.8 99.5329 124.18 99.4929 123.5H102.313C102.366 123.927 102.573 124.28 102.933 124.56C103.306 124.84 103.766 124.98 104.313 124.98C104.846 124.98 105.26 124.873 105.553 124.66C105.86 124.447 106.013 124.173 106.013 123.84C106.013 123.48 105.826 123.213 105.453 123.04C105.093 122.853 104.513 122.653 103.713 122.44C102.886 122.24 102.206 122.033 101.673 121.82C101.153 121.607 100.7 121.28 100.313 120.84C99.9396 120.4 99.7529 119.807 99.7529 119.06C99.7529 118.447 99.9262 117.887 100.273 117.38C100.633 116.873 101.14 116.473 101.793 116.18C102.46 115.887 103.24 115.74 104.133 115.74C105.453 115.74 106.506 116.073 107.293 116.74C108.08 117.393 108.513 118.28 108.593 119.4H105.913C105.873 118.96 105.686 118.613 105.353 118.36C105.033 118.093 104.6 117.96 104.053 117.96C103.546 117.96 103.153 118.053 102.873 118.24C102.606 118.427 102.473 118.687 102.473 119.02C102.473 119.393 102.66 119.68 103.033 119.88C103.406 120.067 103.986 120.26 104.773 120.46C105.573 120.66 106.233 120.867 106.753 121.08C107.273 121.293 107.72 121.627 108.093 122.08C108.48 122.52 108.68 123.107 108.693 123.84C108.693 124.48 108.513 125.053 108.153 125.56C107.806 126.067 107.3 126.467 106.633 126.76C105.98 127.04 105.213 127.18 104.333 127.18ZM114.251 118.22V123.58C114.251 123.953 114.338 124.227 114.511 124.4C114.698 124.56 115.005 124.64 115.431 124.64H116.731V127H114.971C112.611 127 111.431 125.853 111.431 123.56V118.22H110.111V115.92H111.431V113.18H114.251V115.92H116.731V118.22H114.251ZM120.165 114.6C119.672 114.6 119.259 114.447 118.925 114.14C118.605 113.82 118.445 113.427 118.445 112.96C118.445 112.493 118.605 112.107 118.925 111.8C119.259 111.48 119.672 111.32 120.165 111.32C120.659 111.32 121.065 111.48 121.385 111.8C121.719 112.107 121.885 112.493 121.885 112.96C121.885 113.427 121.719 113.82 121.385 114.14C121.065 114.447 120.659 114.6 120.165 114.6ZM121.545 115.92V127H118.745V115.92H121.545ZM123.592 121.46C123.592 120.313 123.825 119.313 124.292 118.46C124.758 117.593 125.405 116.927 126.232 116.46C127.058 115.98 128.005 115.74 129.072 115.74C130.445 115.74 131.578 116.087 132.472 116.78C133.378 117.46 133.985 118.42 134.292 119.66H131.272C131.112 119.18 130.838 118.807 130.452 118.54C130.078 118.26 129.612 118.12 129.052 118.12C128.252 118.12 127.618 118.413 127.152 119C126.685 119.573 126.452 120.393 126.452 121.46C126.452 122.513 126.685 123.333 127.152 123.92C127.618 124.493 128.252 124.78 129.052 124.78C130.185 124.78 130.925 124.273 131.272 123.26H134.292C133.985 124.46 133.378 125.413 132.472 126.12C131.565 126.827 130.432 127.18 129.072 127.18C128.005 127.18 127.058 126.947 126.232 126.48C125.405 126 124.758 125.333 124.292 124.48C123.825 123.613 123.592 122.607 123.592 121.46Z" fill="#08366A"/>
<path d="M92.0771 5.99801C91.8144 2.88053 94.1293 0.123449 97.2567 0.0375864C116.019 -0.477547 134.591 4.29928 150.822 13.877C168.682 24.4164 182.824 40.2478 191.289 59.1794C199.754 78.111 202.125 99.2062 198.072 119.544C194.018 139.882 183.742 158.457 168.666 172.697C153.59 186.938 134.46 196.138 113.924 199.026C93.3879 201.913 72.4621 198.345 54.0436 188.814C35.6252 179.284 20.6254 164.263 11.1209 145.831C2.48361 129.081 -1.22713 110.268 0.356354 91.5648C0.620285 88.4474 3.50481 86.2933 6.60225 86.7333C9.69968 87.1733 11.8349 90.0411 11.5936 93.1603C10.3267 109.533 13.6301 125.978 21.1904 140.639C29.6181 156.982 42.9185 170.302 59.2502 178.752C75.5819 187.203 94.137 190.367 112.346 187.807C130.556 185.246 147.519 177.088 160.887 164.461C174.255 151.835 183.367 135.364 186.961 117.33C190.554 99.2961 188.453 80.5909 180.946 63.8041C173.44 47.0174 160.901 32.9796 145.064 23.6342C130.857 15.2508 114.628 11.0156 98.2092 11.3475C95.0813 11.4107 92.3399 9.11549 92.0771 5.99801Z" fill="#08366A"/>
</svg>
