<svg width="187" height="200" viewBox="0 0 187 200" fill="none" xmlns="http://www.w3.org/2000/svg">
<path d="M169 100C169 144.183 133.183 180 89 180C44.8172 180 9 144.183 9 100C9 55.8172 44.8172 20 89 20C133.183 20 169 55.8172 169 100ZM18.6 100C18.6 138.881 50.1192 170.4 89 170.4C127.881 170.4 159.4 138.881 159.4 100C159.4 61.1192 127.881 29.6 89 29.6C50.1192 29.6 18.6 61.1192 18.6 100Z" fill="#C2BEBE"/>
<path d="M102.399 173.997C102.871 176.605 105.373 178.351 107.949 177.724C121.538 174.411 134.05 167.585 144.212 157.893C155.535 147.095 163.442 133.213 166.956 117.967C170.47 102.72 169.436 86.7783 163.982 72.1135C158.528 57.4488 148.894 44.7052 136.271 35.46C123.649 26.2148 108.592 20.8739 92.9656 20.0983C77.3387 19.3228 61.8274 23.1465 48.3515 31.0964C34.8756 39.0463 24.0267 50.7733 17.1475 64.826C10.9732 77.4385 8.24005 91.4276 9.18126 105.383C9.35965 108.028 11.7793 109.887 14.4089 109.55C17.0384 109.213 18.8798 106.808 18.7231 104.162C18.007 92.0724 20.4212 79.9727 25.7698 69.0468C31.8235 56.6805 41.3705 46.3608 53.2293 39.3649C65.0881 32.369 78.7381 29.004 92.4897 29.6865C106.241 30.3691 119.491 35.069 130.599 43.2048C141.707 51.3406 150.185 62.5549 154.984 75.4599C159.784 88.3649 160.694 102.394 157.602 115.811C154.509 129.228 147.551 141.443 137.587 150.946C128.784 159.341 117.976 165.293 106.234 168.258C103.664 168.907 101.926 171.388 102.399 173.997Z" fill="#FC8686"/>
<path d="M61.5806 94.16V91.96L68.1206 82.6H71.3806V91.72H73.1406V94.16H71.3806V97H68.5806V94.16H61.5806ZM68.7606 85.6L64.6606 91.72H68.7606V85.6ZM84.7233 84.84H78.2433V88.26C78.5233 87.9133 78.9233 87.6333 79.4433 87.42C79.9633 87.1933 80.5166 87.08 81.1033 87.08C82.1699 87.08 83.0433 87.3133 83.7233 87.78C84.4033 88.2467 84.8966 88.8467 85.2033 89.58C85.5099 90.3 85.6633 91.0733 85.6633 91.9C85.6633 93.4333 85.2233 94.6667 84.3433 95.6C83.4766 96.5333 82.2366 97 80.6233 97C79.1033 97 77.8899 96.62 76.9833 95.86C76.0766 95.1 75.5633 94.1067 75.4433 92.88H78.1633C78.2833 93.4133 78.5499 93.84 78.9633 94.16C79.3899 94.48 79.9299 94.64 80.5833 94.64C81.3699 94.64 81.9633 94.3933 82.3633 93.9C82.7633 93.4067 82.9633 92.7533 82.9633 91.94C82.9633 91.1133 82.7566 90.4867 82.3433 90.06C81.9433 89.62 81.3499 89.4 80.5633 89.4C80.0033 89.4 79.5366 89.54 79.1633 89.82C78.7899 90.1 78.5233 90.4733 78.3633 90.94H75.6833V82.38H84.7233V84.84ZM89.3544 97.14C88.8477 97.14 88.4277 96.9867 88.0944 96.68C87.7744 96.36 87.6144 95.9667 87.6144 95.5C87.6144 95.0333 87.7744 94.6467 88.0944 94.34C88.4277 94.02 88.8477 93.86 89.3544 93.86C89.8477 93.86 90.2544 94.02 90.5744 94.34C90.8944 94.6467 91.0544 95.0333 91.0544 95.5C91.0544 95.9667 90.8944 96.36 90.5744 96.68C90.2544 96.9867 89.8477 97.14 89.3544 97.14ZM93.8697 93.84C95.1497 92.7733 96.1697 91.8867 96.9297 91.18C97.6897 90.46 98.323 89.7133 98.8297 88.94C99.3364 88.1667 99.5897 87.4067 99.5897 86.66C99.5897 85.98 99.4297 85.4467 99.1097 85.06C98.7897 84.6733 98.2964 84.48 97.6297 84.48C96.963 84.48 96.4497 84.7067 96.0897 85.16C95.7297 85.6 95.543 86.2067 95.5297 86.98H92.8097C92.863 85.38 93.3364 84.1667 94.2297 83.34C95.1364 82.5133 96.283 82.1 97.6697 82.1C99.1897 82.1 100.356 82.5067 101.17 83.32C101.983 84.12 102.39 85.18 102.39 86.5C102.39 87.54 102.11 88.5333 101.55 89.48C100.99 90.4267 100.35 91.2533 99.6297 91.96C98.9097 92.6533 97.9697 93.4933 96.8097 94.48H102.71V96.8H92.8297V94.72L93.8697 93.84ZM112.36 94.78H116.96V97H109.56V83.04H112.36V94.78ZM69.9051 120C69.9051 118.627 70.2117 117.4 70.8251 116.32C71.4517 115.227 72.2984 114.38 73.3651 113.78C74.4451 113.167 75.6517 112.86 76.9851 112.86C78.5451 112.86 79.9117 113.26 81.0851 114.06C82.2584 114.86 83.0784 115.967 83.5451 117.38H80.3251C80.0051 116.713 79.5517 116.213 78.9651 115.88C78.3917 115.547 77.7251 115.38 76.9651 115.38C76.1517 115.38 75.4251 115.573 74.7851 115.96C74.1584 116.333 73.6651 116.867 73.3051 117.56C72.9584 118.253 72.7851 119.067 72.7851 120C72.7851 120.92 72.9584 121.733 73.3051 122.44C73.6651 123.133 74.1584 123.673 74.7851 124.06C75.4251 124.433 76.1517 124.62 76.9651 124.62C77.7251 124.62 78.3917 124.453 78.9651 124.12C79.5517 123.773 80.0051 123.267 80.3251 122.6H83.5451C83.0784 124.027 82.2584 125.14 81.0851 125.94C79.9251 126.727 78.5584 127.12 76.9851 127.12C75.6517 127.12 74.4451 126.82 73.3651 126.22C72.2984 125.607 71.4517 124.76 70.8251 123.68C70.2117 122.6 69.9051 121.373 69.9051 120ZM90.8566 127.18C89.79 127.18 88.83 126.947 87.9766 126.48C87.1233 126 86.45 125.327 85.9566 124.46C85.4766 123.593 85.2366 122.593 85.2366 121.46C85.2366 120.327 85.4833 119.327 85.9766 118.46C86.4833 117.593 87.17 116.927 88.0366 116.46C88.9033 115.98 89.87 115.74 90.9366 115.74C92.0033 115.74 92.97 115.98 93.8366 116.46C94.7033 116.927 95.3833 117.593 95.8766 118.46C96.3833 119.327 96.6366 120.327 96.6366 121.46C96.6366 122.593 96.3766 123.593 95.8566 124.46C95.35 125.327 94.6566 126 93.7766 126.48C92.91 126.947 91.9366 127.18 90.8566 127.18ZM90.8566 124.74C91.3633 124.74 91.8366 124.62 92.2766 124.38C92.73 124.127 93.09 123.753 93.3566 123.26C93.6233 122.767 93.7566 122.167 93.7566 121.46C93.7566 120.407 93.4766 119.6 92.9166 119.04C92.37 118.467 91.6966 118.18 90.8966 118.18C90.0966 118.18 89.4233 118.467 88.8766 119.04C88.3433 119.6 88.0766 120.407 88.0766 121.46C88.0766 122.513 88.3366 123.327 88.8566 123.9C89.39 124.46 90.0566 124.74 90.8566 124.74ZM99.2505 123.84C100.531 122.773 101.551 121.887 102.311 121.18C103.071 120.46 103.704 119.713 104.211 118.94C104.717 118.167 104.971 117.407 104.971 116.66C104.971 115.98 104.811 115.447 104.491 115.06C104.171 114.673 103.677 114.48 103.011 114.48C102.344 114.48 101.831 114.707 101.471 115.16C101.111 115.6 100.924 116.207 100.911 116.98H98.1905C98.2439 115.38 98.7172 114.167 99.6105 113.34C100.517 112.513 101.664 112.1 103.051 112.1C104.571 112.1 105.737 112.507 106.551 113.32C107.364 114.12 107.771 115.18 107.771 116.5C107.771 117.54 107.491 118.533 106.931 119.48C106.371 120.427 105.731 121.253 105.011 121.96C104.291 122.653 103.351 123.493 102.191 124.48H108.091V126.8H98.2105V124.72L99.2505 123.84Z" fill="#08366A"/>
<path d="M161.935 42.6942C164.42 40.7937 164.906 37.2265 162.867 34.8529C150.097 19.9808 133.205 9.15583 114.265 3.78858C93.5039 -2.09466 71.3971 -1.10475 51.2453 6.61048C31.0935 14.3257 13.9779 28.3523 2.45419 46.5958C-9.06949 64.8393 -14.3829 86.3209 -12.6928 107.833C-11.0026 129.345 -2.39942 149.733 11.832 165.953C26.0635 182.173 45.1597 193.354 66.2692 197.828C87.3786 202.301 109.369 199.826 128.956 190.773C146.825 182.513 161.82 169.183 172.111 152.499C173.753 149.836 172.716 146.389 169.965 144.9C167.213 143.411 163.791 144.445 162.129 147.096C153.016 161.635 139.852 173.255 124.203 180.489C106.835 188.516 87.3357 190.711 68.6179 186.744C49.9 182.778 32.9672 172.863 20.3481 158.481C7.72902 144.098 0.10055 126.02 -1.39815 106.945C-2.89685 87.8707 1.81463 68.8228 12.0327 52.6462C22.2509 36.4696 37.4274 24.0321 55.2961 17.191C73.1648 10.3498 92.7671 9.47208 111.176 14.6888C127.763 19.3894 142.58 28.8109 153.852 41.7483C155.908 44.1071 159.449 44.5947 161.935 42.6942Z" fill="white"/>
</svg>
