<svg width="200" height="200" viewBox="0 0 200 200" fill="none" xmlns="http://www.w3.org/2000/svg">
<path d="M182 100C182 144.183 146.183 180 102 180C57.8172 180 22 144.183 22 100C22 55.8172 57.8172 20 102 20C146.183 20 182 55.8172 182 100ZM31.6 100C31.6 138.881 63.1192 170.4 102 170.4C140.881 170.4 172.4 138.881 172.4 100C172.4 61.1192 140.881 29.6 102 29.6C63.1192 29.6 31.6 61.1192 31.6 100Z" fill="#C2BEBE"/>
<path d="M115.399 173.997C115.871 176.605 118.373 178.351 120.949 177.724C134.538 174.411 147.05 167.585 157.212 157.893C168.535 147.095 176.442 133.213 179.956 117.967C183.47 102.72 182.436 86.7783 176.982 72.1135C171.528 57.4488 161.894 44.7052 149.271 35.46C136.649 26.2148 121.592 20.8739 105.966 20.0983C90.3387 19.3228 74.8274 23.1465 61.3515 31.0964C47.8756 39.0463 37.0267 50.7733 30.1475 64.826C23.9732 77.4385 21.2401 91.4276 22.1813 105.383C22.3596 108.028 24.7793 109.887 27.4089 109.55V109.55C30.0384 109.213 31.8798 106.808 31.7231 104.162C31.007 92.0724 33.4212 79.9727 38.7698 69.0468C44.8235 56.6805 54.3705 46.3608 66.2293 39.3649C78.0881 32.369 91.7381 29.004 105.49 29.6865C119.241 30.3691 132.491 35.069 143.599 43.2048C154.707 51.3406 163.185 62.5549 167.984 75.4599C172.784 88.3649 173.694 102.394 170.602 115.811C167.509 129.228 160.551 141.443 150.587 150.946C141.784 159.341 130.976 165.293 119.234 168.258C116.664 168.907 114.926 171.388 115.399 173.997V173.997Z" fill="#FC8686"/>
<path d="M74.5806 94.16V91.96L81.1206 82.6H84.3806V91.72H86.1406V94.16H84.3806V97H81.5806V94.16H74.5806ZM81.7606 85.6L77.6606 91.72H81.7606V85.6ZM97.7233 84.84H91.2433V88.26C91.5233 87.9133 91.9233 87.6333 92.4433 87.42C92.9633 87.1933 93.5166 87.08 94.1033 87.08C95.1699 87.08 96.0433 87.3133 96.7233 87.78C97.4033 88.2467 97.8966 88.8467 98.2033 89.58C98.5099 90.3 98.6633 91.0733 98.6633 91.9C98.6633 93.4333 98.2233 94.6667 97.3433 95.6C96.4766 96.5333 95.2366 97 93.6233 97C92.1033 97 90.8899 96.62 89.9833 95.86C89.0766 95.1 88.5633 94.1067 88.4433 92.88H91.1633C91.2833 93.4133 91.5499 93.84 91.9633 94.16C92.3899 94.48 92.9299 94.64 93.5833 94.64C94.3699 94.64 94.9633 94.3933 95.3633 93.9C95.7633 93.4067 95.9633 92.7533 95.9633 91.94C95.9633 91.1133 95.7566 90.4867 95.3433 90.06C94.9433 89.62 94.3499 89.4 93.5633 89.4C93.0033 89.4 92.5366 89.54 92.1633 89.82C91.7899 90.1 91.5233 90.4733 91.3633 90.94H88.6833V82.38H97.7233V84.84ZM102.354 97.14C101.848 97.14 101.428 96.9867 101.094 96.68C100.774 96.36 100.614 95.9667 100.614 95.5C100.614 95.0333 100.774 94.6467 101.094 94.34C101.428 94.02 101.848 93.86 102.354 93.86C102.848 93.86 103.254 94.02 103.574 94.34C103.894 94.6467 104.054 95.0333 104.054 95.5C104.054 95.9667 103.894 96.36 103.574 96.68C103.254 96.9867 102.848 97.14 102.354 97.14ZM106.87 93.84C108.15 92.7733 109.17 91.8867 109.93 91.18C110.69 90.46 111.323 89.7133 111.83 88.94C112.336 88.1667 112.59 87.4067 112.59 86.66C112.59 85.98 112.43 85.4467 112.11 85.06C111.79 84.6733 111.296 84.48 110.63 84.48C109.963 84.48 109.45 84.7067 109.09 85.16C108.73 85.6 108.543 86.2067 108.53 86.98H105.81C105.863 85.38 106.336 84.1667 107.23 83.34C108.136 82.5133 109.283 82.1 110.67 82.1C112.19 82.1 113.356 82.5067 114.17 83.32C114.983 84.12 115.39 85.18 115.39 86.5C115.39 87.54 115.11 88.5333 114.55 89.48C113.99 90.4267 113.35 91.2533 112.63 91.96C111.91 92.6533 110.97 93.4933 109.81 94.48H115.71V96.8H105.83V94.72L106.87 93.84ZM125.36 94.78H129.96V97H122.56V83.04H125.36V94.78ZM82.9051 120C82.9051 118.627 83.2117 117.4 83.8251 116.32C84.4517 115.227 85.2984 114.38 86.3651 113.78C87.4451 113.167 88.6517 112.86 89.9851 112.86C91.5451 112.86 92.9117 113.26 94.0851 114.06C95.2584 114.86 96.0784 115.967 96.5451 117.38H93.3251C93.0051 116.713 92.5517 116.213 91.9651 115.88C91.3917 115.547 90.7251 115.38 89.9651 115.38C89.1517 115.38 88.4251 115.573 87.7851 115.96C87.1584 116.333 86.6651 116.867 86.3051 117.56C85.9584 118.253 85.7851 119.067 85.7851 120C85.7851 120.92 85.9584 121.733 86.3051 122.44C86.6651 123.133 87.1584 123.673 87.7851 124.06C88.4251 124.433 89.1517 124.62 89.9651 124.62C90.7251 124.62 91.3917 124.453 91.9651 124.12C92.5517 123.773 93.0051 123.267 93.3251 122.6H96.5451C96.0784 124.027 95.2584 125.14 94.0851 125.94C92.9251 126.727 91.5584 127.12 89.9851 127.12C88.6517 127.12 87.4451 126.82 86.3651 126.22C85.2984 125.607 84.4517 124.76 83.8251 123.68C83.2117 122.6 82.9051 121.373 82.9051 120ZM103.857 127.18C102.79 127.18 101.83 126.947 100.977 126.48C100.123 126 99.45 125.327 98.9566 124.46C98.4766 123.593 98.2366 122.593 98.2366 121.46C98.2366 120.327 98.4833 119.327 98.9766 118.46C99.4833 117.593 100.17 116.927 101.037 116.46C101.903 115.98 102.87 115.74 103.937 115.74C105.003 115.74 105.97 115.98 106.837 116.46C107.703 116.927 108.383 117.593 108.877 118.46C109.383 119.327 109.637 120.327 109.637 121.46C109.637 122.593 109.377 123.593 108.857 124.46C108.35 125.327 107.657 126 106.777 126.48C105.91 126.947 104.937 127.18 103.857 127.18ZM103.857 124.74C104.363 124.74 104.837 124.62 105.277 124.38C105.73 124.127 106.09 123.753 106.357 123.26C106.623 122.767 106.757 122.167 106.757 121.46C106.757 120.407 106.477 119.6 105.917 119.04C105.37 118.467 104.697 118.18 103.897 118.18C103.097 118.18 102.423 118.467 101.877 119.04C101.343 119.6 101.077 120.407 101.077 121.46C101.077 122.513 101.337 123.327 101.857 123.9C102.39 124.46 103.057 124.74 103.857 124.74ZM112.251 123.84C113.531 122.773 114.551 121.887 115.311 121.18C116.071 120.46 116.704 119.713 117.211 118.94C117.717 118.167 117.971 117.407 117.971 116.66C117.971 115.98 117.811 115.447 117.491 115.06C117.171 114.673 116.677 114.48 116.011 114.48C115.344 114.48 114.831 114.707 114.471 115.16C114.111 115.6 113.924 116.207 113.911 116.98H111.191C111.244 115.38 111.717 114.167 112.611 113.34C113.517 112.513 114.664 112.1 116.051 112.1C117.571 112.1 118.737 112.507 119.551 113.32C120.364 114.12 120.771 115.18 120.771 116.5C120.771 117.54 120.491 118.533 119.931 119.48C119.371 120.427 118.731 121.253 118.011 121.96C117.291 122.653 116.351 123.493 115.191 124.48H121.091V126.8H111.211V124.72L112.251 123.84Z" fill="#08366A"/>
<path d="M174.935 42.6942C177.42 40.7937 177.906 37.2265 175.867 34.8529C163.097 19.9808 146.205 9.15583 127.265 3.78858C106.504 -2.09466 84.3971 -1.10475 64.2453 6.61048C44.0935 14.3257 26.9779 28.3523 15.4542 46.5958C3.93051 64.8393 -1.38295 86.3209 0.307238 107.833C1.99742 129.345 10.6006 149.733 24.832 165.953C39.0635 182.173 58.1597 193.354 79.2692 197.828C100.379 202.301 122.369 199.826 141.956 190.773C159.825 182.513 174.82 169.183 185.111 152.499C186.753 149.836 185.716 146.389 182.965 144.9V144.9C180.213 143.411 176.791 144.445 175.129 147.096C166.016 161.635 152.852 173.255 137.203 180.489C119.835 188.516 100.336 190.711 81.6179 186.744C62.9 182.778 45.9672 172.863 33.3481 158.481C20.729 144.098 13.1006 126.02 11.6019 106.945C10.1032 87.8707 14.8146 68.8228 25.0327 52.6462C35.2509 36.4696 50.4274 24.0321 68.2961 17.191C86.1648 10.3498 105.767 9.47208 124.176 14.6888C140.763 19.3894 155.58 28.8109 166.852 41.7483C168.907 44.1071 172.449 44.5947 174.935 42.6942V42.6942Z" fill="white"/>
</svg>
