<svg width="200" height="200" viewBox="0 0 200 200" fill="none" xmlns="http://www.w3.org/2000/svg">
<path d="M194.335 100C197.464 100 200.017 97.4615 199.84 94.338C198.73 74.7669 191.887 55.9064 180.103 40.1376C167.186 22.8528 149.024 10.2099 128.33 4.0968C107.636 -2.01626 85.5191 -1.27154 65.283 6.21977C45.0469 13.7111 27.7768 27.5471 16.0515 45.6617C4.32629 63.7762 -1.22504 85.1976 0.226515 106.727C1.67807 128.256 10.0546 148.739 24.1054 165.115C38.1561 181.492 57.1272 192.885 78.1857 197.592C97.3974 201.886 117.406 200.406 135.716 193.405C138.638 192.287 139.908 188.919 138.627 186.064C137.346 183.21 133.999 181.953 131.069 183.049C114.997 189.062 97.4825 190.296 80.6572 186.535C61.9844 182.361 45.1627 172.259 32.7038 157.738C20.2449 143.217 12.8174 125.055 11.5303 105.965C10.2432 86.8746 15.1656 67.8802 25.5624 51.8179C35.9593 35.7556 51.2728 23.4871 69.2163 16.8445C87.1597 10.2019 106.771 9.54159 125.12 14.9621C143.47 20.3826 159.574 31.5931 171.028 46.9196C181.348 60.7299 187.394 77.2143 188.49 94.3389C188.689 97.461 191.207 100 194.335 100Z" fill="#1AABFA"/>
<path d="M180 100C180 144.183 144.183 180 100 180C55.8172 180 20 144.183 20 100C20 55.8172 55.8172 20 100 20C144.183 20 180 55.8172 180 100ZM28 100C28 139.765 60.2355 172 100 172C139.765 172 172 139.765 172 100C172 60.2355 139.765 28 100 28C60.2355 28 28 60.2355 28 100Z" fill="#979797"/>
<path d="M85.4563 174.595C85.0336 176.764 86.448 178.875 88.6347 179.189C103.141 181.271 117.969 179.331 131.488 173.543C146.235 167.229 158.743 156.627 167.388 143.114C176.034 129.601 180.417 113.801 179.969 97.7658C179.521 81.7303 174.262 66.1998 164.876 53.1907C155.49 40.1816 142.409 30.2948 127.333 24.814C112.256 19.3332 95.8801 18.5116 80.3307 22.4557C64.7813 26.3998 50.7768 34.9276 40.1355 46.9318C30.3802 57.9364 23.8644 71.3965 21.2668 85.8193C20.8753 87.9934 22.4327 90.0012 24.6237 90.2836C26.8147 90.5661 28.8085 89.016 29.2121 86.844C31.5968 74.0122 37.4309 62.0426 46.1219 52.2386C55.6992 41.4348 68.3032 33.7598 82.2976 30.2101C96.2921 26.6604 111.031 27.3999 124.599 32.3326C138.168 37.2654 149.941 46.1634 158.388 57.8716C166.836 69.5798 171.569 83.5573 171.972 97.9893C172.375 112.421 168.43 126.641 160.649 138.803C152.869 150.964 141.611 160.506 128.339 166.188C116.295 171.345 103.096 173.108 90.1672 171.325C87.9788 171.024 85.8791 172.427 85.4563 174.595Z" fill="#EA8A8A"/>
</svg>
