<svg width="100" height="100" viewBox="0 0 100 100" fill="none" xmlns="http://www.w3.org/2000/svg">
<path d="M37.176 50H34.296V37.472L30.288 37.976V35.528L37.176 34.712V50ZM51.4851 42.44C51.4851 45.304 51.0531 47.32 50.1891 48.488C49.3411 49.64 47.8211 50.216 45.6291 50.216C44.2531 50.216 43.1731 50.048 42.3891 49.712C41.6211 49.376 41.0371 48.84 40.6371 48.104C40.3331 47.528 40.1091 46.792 39.9651 45.896C39.8211 44.984 39.7491 43.832 39.7491 42.44C39.7491 39.608 40.1811 37.616 41.0451 36.464C41.9091 35.296 43.4371 34.712 45.6291 34.712C47.0051 34.712 48.0771 34.88 48.8451 35.216C49.6131 35.536 50.1971 36.072 50.5971 36.824C50.9011 37.384 51.1251 38.112 51.2691 39.008C51.4131 39.904 51.4851 41.048 51.4851 42.44ZM48.5811 42.44C48.5811 40.36 48.3891 38.984 48.0051 38.312C47.6371 37.64 46.8451 37.304 45.6291 37.304C44.4451 37.304 43.6531 37.648 43.2531 38.336C42.8691 39.024 42.6771 40.392 42.6771 42.44C42.6771 44.504 42.8611 45.864 43.2291 46.52C43.6131 47.176 44.4131 47.504 45.6291 47.504C46.8131 47.504 47.5971 47.168 47.9811 46.496C48.3811 45.808 48.5811 44.456 48.5811 42.44ZM58.8611 53.888C58.0291 53.888 57.2371 53.832 56.4851 53.72C55.7491 53.624 55.1571 53.488 54.7091 53.312V50.912C55.0771 51.04 55.6291 51.144 56.3651 51.224C57.1171 51.32 57.8611 51.368 58.5971 51.368C59.6211 51.368 60.3251 51.184 60.7091 50.816C61.1091 50.448 61.3171 49.792 61.3331 48.848V48.176C60.7411 48.496 60.1251 48.744 59.4851 48.92C58.8451 49.096 58.2131 49.184 57.5891 49.184C56.0371 49.184 54.9331 48.752 54.2771 47.888C53.6211 47.024 53.2931 45.576 53.2931 43.544C53.2931 41.512 53.7331 40.064 54.6131 39.2C55.5091 38.336 57.0131 37.904 59.1251 37.904C59.9411 37.904 60.8371 37.952 61.8131 38.048C62.8051 38.144 63.5731 38.248 64.1171 38.36V48.008C64.1171 50.184 63.7251 51.704 62.9411 52.568C62.1571 53.448 60.7971 53.888 58.8611 53.888ZM59.1251 40.4C57.8291 40.4 56.9971 40.6 56.6291 41C56.2611 41.384 56.0771 42.232 56.0771 43.544C56.0771 44.76 56.2291 45.576 56.5331 45.992C56.8531 46.392 57.5171 46.592 58.5251 46.592C58.9571 46.592 59.4131 46.544 59.8931 46.448C60.3891 46.336 60.8691 46.192 61.3331 46.016V40.616C60.9971 40.552 60.6371 40.504 60.2531 40.472C59.8851 40.424 59.5091 40.4 59.1251 40.4Z" fill="#F93939"/>
<path d="M12.52 63.34V66H10.84V57.222H13.934C15.2313 57.222 16.1553 57.4507 16.706 57.908C17.266 58.3653 17.546 59.126 17.546 60.19C17.546 61.2633 17.252 62.0567 16.664 62.57C16.0853 63.0833 15.1893 63.34 13.976 63.34H12.52ZM15.838 60.19C15.838 59.658 15.6933 59.2847 15.404 59.07C15.124 58.846 14.634 58.734 13.934 58.734H12.52V61.87H13.934C14.634 61.87 15.124 61.744 15.404 61.492C15.6933 61.2307 15.838 60.7967 15.838 60.19ZM20.2553 56.69V66H18.6313V56.69H20.2553ZM23.3999 66.126C22.6905 66.126 22.1679 65.9533 21.8319 65.608C21.5052 65.2533 21.3419 64.7027 21.3419 63.956C21.3419 63.1907 21.5379 62.6493 21.9299 62.332C22.3312 62.0147 23.0172 61.856 23.9879 61.856C24.2585 61.856 24.5339 61.87 24.8139 61.898C25.0939 61.926 25.3365 61.9633 25.5419 62.01V61.422C25.5419 61.058 25.4299 60.792 25.2059 60.624C24.9819 60.456 24.6272 60.372 24.1419 60.372C23.7032 60.372 23.3112 60.386 22.9659 60.414C22.6299 60.442 22.3079 60.4887 21.9999 60.554V59.196C22.3545 59.112 22.7372 59.0513 23.1479 59.014C23.5679 58.9673 24.0625 58.944 24.6319 58.944C25.4812 58.944 26.1159 59.14 26.5359 59.532C26.9559 59.9147 27.1659 60.4933 27.1659 61.268V66H25.6679L25.5979 65.384H25.5699C25.2712 65.608 24.9259 65.79 24.5339 65.93C24.1512 66.0607 23.7732 66.126 23.3999 66.126ZM24.1839 63.018C23.6799 63.018 23.3345 63.0787 23.1479 63.2C22.9612 63.312 22.8679 63.5313 22.8679 63.858C22.8679 64.1753 22.9425 64.404 23.0919 64.544C23.2505 64.6747 23.5165 64.74 23.8899 64.74C24.1605 64.74 24.4452 64.7027 24.7439 64.628C25.0519 64.544 25.3179 64.4413 25.5419 64.32V63.13C25.3179 63.0927 25.0939 63.0647 24.8699 63.046C24.6552 63.0273 24.4265 63.018 24.1839 63.018ZM31.2565 60.344C30.7618 60.344 30.4212 60.3953 30.2345 60.498C30.0572 60.5913 29.9685 60.8013 29.9685 61.128C29.9685 61.2867 30.0058 61.408 30.0805 61.492C30.1552 61.5667 30.2812 61.618 30.4585 61.646L32.1805 61.898C32.7312 61.9727 33.1138 62.1453 33.3285 62.416C33.5525 62.6867 33.6645 63.116 33.6645 63.704C33.6645 64.5533 33.4685 65.1693 33.0765 65.552C32.6845 65.9347 32.0172 66.126 31.0745 66.126C30.5332 66.126 30.0385 66.1027 29.5905 66.056C29.1425 66.0093 28.7645 65.9393 28.4565 65.846V64.404C28.7458 64.4787 29.1005 64.544 29.5205 64.6C29.9405 64.6467 30.3652 64.67 30.7945 64.67C31.2798 64.67 31.6065 64.6093 31.7745 64.488C31.9518 64.3667 32.0405 64.138 32.0405 63.802C32.0405 63.634 31.9985 63.508 31.9145 63.424C31.8305 63.3307 31.6905 63.27 31.4945 63.242L29.7445 62.99C29.2685 62.9247 28.9185 62.7473 28.6945 62.458C28.4705 62.1593 28.3585 61.73 28.3585 61.17C28.3585 60.414 28.5872 59.854 29.0445 59.49C29.5112 59.126 30.2158 58.944 31.1585 58.944C31.5412 58.944 31.8912 58.9533 32.2085 58.972C32.5258 58.9907 32.8525 59.028 33.1885 59.084V60.47C32.9458 60.4327 32.6518 60.4047 32.3065 60.386C31.9705 60.358 31.6205 60.344 31.2565 60.344ZM39.0628 64.488V65.874C38.9041 65.9393 38.6801 65.9953 38.3908 66.042C38.1108 66.098 37.8541 66.126 37.6208 66.126C36.7341 66.126 36.0995 65.9347 35.7168 65.552C35.3341 65.16 35.1428 64.5113 35.1428 63.606V60.442H34.2188V59.084H35.1848L35.4088 57.432H36.7668V59.084H38.9788V60.442H36.7668V63.55C36.7668 63.9607 36.8555 64.2407 37.0328 64.39C37.2101 64.5393 37.5275 64.614 37.9848 64.614C38.1435 64.614 38.3301 64.6047 38.5448 64.586C38.7595 64.558 38.9321 64.5253 39.0628 64.488ZM41.6665 58.104H39.9445V56.69H41.6665V58.104ZM41.6245 66H40.0005V59.084H41.6245V66ZM48.129 64.25V65.608C47.8863 65.748 47.5223 65.8693 47.037 65.972C46.561 66.0747 46.0663 66.126 45.553 66.126C44.5637 66.126 43.8683 65.86 43.467 65.328C43.0657 64.796 42.865 63.8627 42.865 62.528C42.865 61.212 43.1217 60.288 43.635 59.756C44.1577 59.2147 45.0537 58.944 46.323 58.944C46.631 58.944 46.9063 58.9533 47.149 58.972C47.401 58.9813 47.667 59.0047 47.947 59.042V60.484C47.583 60.456 47.2657 60.4373 46.995 60.428C46.7243 60.4093 46.5003 60.4 46.323 60.4C45.5577 60.4 45.0583 60.5353 44.825 60.806C44.601 61.0767 44.489 61.6507 44.489 62.528C44.489 63.3773 44.5777 63.9373 44.755 64.208C44.9417 64.4787 45.3243 64.614 45.903 64.614C46.2857 64.614 46.6777 64.5813 47.079 64.516C47.4897 64.4413 47.8397 64.3527 48.129 64.25ZM54.0475 60.344C53.5528 60.344 53.2122 60.3953 53.0255 60.498C52.8482 60.5913 52.7595 60.8013 52.7595 61.128C52.7595 61.2867 52.7968 61.408 52.8715 61.492C52.9462 61.5667 53.0722 61.618 53.2495 61.646L54.9715 61.898C55.5222 61.9727 55.9048 62.1453 56.1195 62.416C56.3435 62.6867 56.4555 63.116 56.4555 63.704C56.4555 64.5533 56.2595 65.1693 55.8675 65.552C55.4755 65.9347 54.8082 66.126 53.8655 66.126C53.3242 66.126 52.8295 66.1027 52.3815 66.056C51.9335 66.0093 51.5555 65.9393 51.2475 65.846V64.404C51.5368 64.4787 51.8915 64.544 52.3115 64.6C52.7315 64.6467 53.1562 64.67 53.5855 64.67C54.0708 64.67 54.3975 64.6093 54.5655 64.488C54.7428 64.3667 54.8315 64.138 54.8315 63.802C54.8315 63.634 54.7895 63.508 54.7055 63.424C54.6215 63.3307 54.4815 63.27 54.2855 63.242L52.5355 62.99C52.0595 62.9247 51.7095 62.7473 51.4855 62.458C51.2615 62.1593 51.1495 61.73 51.1495 61.17C51.1495 60.414 51.3782 59.854 51.8355 59.49C52.3022 59.126 53.0068 58.944 53.9495 58.944C54.3322 58.944 54.6822 58.9533 54.9995 58.972C55.3168 58.9907 55.6435 59.028 55.9795 59.084V60.47C55.7368 60.4327 55.4428 60.4047 55.0975 60.386C54.7615 60.358 54.4115 60.344 54.0475 60.344ZM59.2475 66.126C58.5382 66.126 58.0155 65.9533 57.6795 65.608C57.3528 65.2533 57.1895 64.7027 57.1895 63.956C57.1895 63.1907 57.3855 62.6493 57.7775 62.332C58.1788 62.0147 58.8648 61.856 59.8355 61.856C60.1062 61.856 60.3815 61.87 60.6615 61.898C60.9415 61.926 61.1842 61.9633 61.3895 62.01V61.422C61.3895 61.058 61.2775 60.792 61.0535 60.624C60.8295 60.456 60.4748 60.372 59.9895 60.372C59.5508 60.372 59.1588 60.386 58.8135 60.414C58.4775 60.442 58.1555 60.4887 57.8475 60.554V59.196C58.2022 59.112 58.5848 59.0513 58.9955 59.014C59.4155 58.9673 59.9102 58.944 60.4795 58.944C61.3288 58.944 61.9635 59.14 62.3835 59.532C62.8035 59.9147 63.0135 60.4933 63.0135 61.268V66H61.5155L61.4455 65.384H61.4175C61.1188 65.608 60.7735 65.79 60.3815 65.93C59.9988 66.0607 59.6208 66.126 59.2475 66.126ZM60.0315 63.018C59.5275 63.018 59.1822 63.0787 58.9955 63.2C58.8088 63.312 58.7155 63.5313 58.7155 63.858C58.7155 64.1753 58.7902 64.404 58.9395 64.544C59.0982 64.6747 59.3642 64.74 59.7375 64.74C60.0082 64.74 60.2928 64.7027 60.5915 64.628C60.8995 64.544 61.1655 64.4413 61.3895 64.32V63.13C61.1655 63.0927 60.9415 63.0647 60.7175 63.046C60.5028 63.0273 60.2742 63.018 60.0315 63.018ZM68.7744 59.084H70.5524L68.0324 66H66.1704L63.6364 59.084H65.4284L67.1084 64.516L68.7744 59.084ZM76.6597 64.306V65.622C76.4264 65.762 76.0577 65.8833 75.5537 65.986C75.059 66.0793 74.541 66.126 73.9997 66.126C72.8984 66.126 72.105 65.846 71.6197 65.286C71.1437 64.726 70.9057 63.802 70.9057 62.514C70.9057 61.2727 71.1577 60.3673 71.6617 59.798C72.1657 59.2287 72.9637 58.944 74.0557 58.944C75.1104 58.944 75.857 59.1633 76.2957 59.602C76.7344 60.0407 76.9537 60.792 76.9537 61.856C76.9537 62.052 76.949 62.234 76.9397 62.402C76.9304 62.5607 76.9117 62.7847 76.8837 63.074H72.5437C72.553 63.6527 72.679 64.0587 72.9217 64.292C73.1737 64.5253 73.617 64.642 74.2517 64.642C74.6717 64.642 75.1057 64.6093 75.5537 64.544C76.0017 64.4787 76.3704 64.3993 76.6597 64.306ZM74.0557 60.358C73.4864 60.358 73.0897 60.47 72.8657 60.694C72.651 60.918 72.5437 61.324 72.5437 61.912H75.4697V61.618C75.4604 61.142 75.353 60.8153 75.1477 60.638C74.9424 60.4513 74.5784 60.358 74.0557 60.358ZM82.61 56.69H84.234V66H82.806L82.708 65.356H82.638C82.3767 65.6173 82.064 65.8133 81.7 65.944C81.3453 66.0653 80.9347 66.126 80.468 66.126C79.544 66.126 78.8813 65.846 78.48 65.286C78.088 64.726 77.892 63.8067 77.892 62.528C77.892 61.268 78.1347 60.358 78.62 59.798C79.1147 59.2287 79.9267 58.944 81.056 58.944C81.3547 58.944 81.6347 58.9673 81.896 59.014C82.1667 59.0513 82.4047 59.1073 82.61 59.182V56.69ZM81.28 60.4C80.5613 60.4 80.0853 60.5447 79.852 60.834C79.628 61.1233 79.516 61.688 79.516 62.528C79.516 63.34 79.614 63.8907 79.81 64.18C80.0153 64.4693 80.4307 64.614 81.056 64.614C81.3547 64.614 81.6347 64.586 81.896 64.53C82.1573 64.4647 82.3953 64.3713 82.61 64.25V60.638C82.414 60.554 82.2087 60.4933 81.994 60.456C81.7793 60.4187 81.5413 60.4 81.28 60.4Z" fill="#08366A"/>
<path d="M100 50C100 77.6142 77.6142 100 50 100C22.3858 100 0 77.6142 0 50C0 22.3858 22.3858 0 50 0C77.6142 0 100 22.3858 100 50ZM5 50C5 74.8528 25.1472 95 50 95C74.8528 95 95 74.8528 95 50C95 25.1472 74.8528 5 50 5C25.1472 5 5 25.1472 5 50Z" fill="#979797"/>
<path d="M40.9102 96.6222C40.646 97.9774 41.53 99.2967 42.8967 99.4929C51.963 100.794 61.2305 99.5818 69.6799 95.9642C78.8967 92.0179 86.7143 85.3919 92.1176 76.9463C97.521 68.5008 100.26 58.6259 99.9805 48.6036C99.7005 38.5814 96.4139 28.8749 90.5475 20.7442C84.681 12.6135 76.5057 6.43427 67.0829 3.00877C57.6601 -0.416729 47.4251 -0.930275 37.7067 1.53481C27.9883 3.99989 19.2355 9.32974 12.5847 16.8324C6.48763 23.7102 2.41524 32.1228 0.791772 41.137C0.547042 42.4959 1.52041 43.7508 2.88979 43.9273V43.9273C4.25917 44.1038 5.5053 43.135 5.75757 41.7775C7.24799 33.7576 10.8943 26.2766 16.3262 20.1491C22.312 13.3968 30.1895 8.5999 38.936 6.38133C47.6826 4.16275 56.8941 4.62494 65.3746 7.70789C73.8551 10.7908 81.2129 16.3521 86.4927 23.6698C91.7725 30.9874 94.7304 39.7233 94.9824 48.7433C95.2344 57.7633 92.7689 66.6507 87.9059 74.2517C83.0429 81.8527 76.007 87.8161 67.7119 91.3677C60.1843 94.5907 51.9353 95.6925 43.8545 94.5784C42.4867 94.3898 41.1744 95.267 40.9102 96.6222V96.6222Z" fill="#F93939"/>
</svg>
