<svg width="100" height="100" viewBox="0 0 100 100" fill="none" xmlns="http://www.w3.org/2000/svg">
<path d="M100 50C100 77.6142 77.6142 100 50 100C22.3858 100 0 77.6142 0 50C0 22.3858 22.3858 0 50 0C77.6142 0 100 22.3858 100 50ZM5 50C5 74.8528 25.1472 95 50 95C74.8528 95 95 74.8528 95 50C95 25.1472 74.8528 5 50 5C25.1472 5 5 25.1472 5 50Z" fill="#979797"/>
<path d="M40.9102 96.6222C40.646 97.9774 41.53 99.2967 42.8967 99.4929C51.963 100.794 61.2305 99.5818 69.6799 95.9642C78.8967 92.0179 86.7143 85.3919 92.1176 76.9463C97.521 68.5008 100.26 58.6259 99.9805 48.6036C99.7005 38.5814 96.4139 28.8749 90.5475 20.7442C84.681 12.6135 76.5057 6.43427 67.0829 3.00877C57.6601 -0.416729 47.4251 -0.930275 37.7067 1.53481C27.9883 3.99989 19.2355 9.32974 12.5847 16.8324C6.48763 23.7102 2.41524 32.1228 0.791772 41.137C0.547042 42.4959 1.52041 43.7508 2.88979 43.9273V43.9273C4.25917 44.1038 5.5053 43.135 5.75757 41.7775C7.24799 33.7576 10.8943 26.2766 16.3262 20.1491C22.312 13.3968 30.1895 8.5999 38.936 6.38133C47.6826 4.16275 56.8941 4.62494 65.3746 7.70789C73.8551 10.7908 81.2129 16.3521 86.4927 23.6698C91.7725 30.9874 94.7304 39.7233 94.9824 48.7433C95.2344 57.7633 92.7689 66.6507 87.9059 74.2517C83.0429 81.8527 76.007 87.8161 67.7119 91.3677C60.1843 94.5907 51.9353 95.6925 43.8545 94.5784C42.4867 94.3898 41.1744 95.267 40.9102 96.6222V96.6222Z" fill="#F93939"/>
<path d="M38.176 50H35.296V37.472L31.288 37.976V35.528L38.176 34.712V50ZM52.4851 42.44C52.4851 45.304 52.0531 47.32 51.1891 48.488C50.3411 49.64 48.8211 50.216 46.6291 50.216C45.2531 50.216 44.1731 50.048 43.3891 49.712C42.6211 49.376 42.0371 48.84 41.6371 48.104C41.3331 47.528 41.1091 46.792 40.9651 45.896C40.8211 44.984 40.7491 43.832 40.7491 42.44C40.7491 39.608 41.1811 37.616 42.0451 36.464C42.9091 35.296 44.4371 34.712 46.6291 34.712C48.0051 34.712 49.0771 34.88 49.8451 35.216C50.6131 35.536 51.1971 36.072 51.5971 36.824C51.9011 37.384 52.1251 38.112 52.2691 39.008C52.4131 39.904 52.4851 41.048 52.4851 42.44ZM49.5811 42.44C49.5811 40.36 49.3891 38.984 49.0051 38.312C48.6371 37.64 47.8451 37.304 46.6291 37.304C45.4451 37.304 44.6531 37.648 44.2531 38.336C43.8691 39.024 43.6771 40.392 43.6771 42.44C43.6771 44.504 43.8611 45.864 44.2291 46.52C44.6131 47.176 45.4131 47.504 46.6291 47.504C47.8131 47.504 48.5971 47.168 48.9811 46.496C49.3811 45.808 49.5811 44.456 49.5811 42.44ZM66.1491 42.44C66.1491 45.304 65.7171 47.32 64.8531 48.488C64.0051 49.64 62.4851 50.216 60.2931 50.216C58.9171 50.216 57.8371 50.048 57.0531 49.712C56.2851 49.376 55.7011 48.84 55.3011 48.104C54.9971 47.528 54.7731 46.792 54.6291 45.896C54.4851 44.984 54.4131 43.832 54.4131 42.44C54.4131 39.608 54.8451 37.616 55.7091 36.464C56.5731 35.296 58.1011 34.712 60.2931 34.712C61.6691 34.712 62.7411 34.88 63.5091 35.216C64.2771 35.536 64.8611 36.072 65.2611 36.824C65.5651 37.384 65.7891 38.112 65.9331 39.008C66.0771 39.904 66.1491 41.048 66.1491 42.44ZM63.2451 42.44C63.2451 40.36 63.0531 38.984 62.6691 38.312C62.3011 37.64 61.5091 37.304 60.2931 37.304C59.1091 37.304 58.3171 37.648 57.9171 38.336C57.5331 39.024 57.3411 40.392 57.3411 42.44C57.3411 44.504 57.5251 45.864 57.8931 46.52C58.2771 47.176 59.0771 47.504 60.2931 47.504C61.4771 47.504 62.2611 47.168 62.6451 46.496C63.0451 45.808 63.2451 44.456 63.2451 42.44Z" fill="#08366A"/>
<path d="M18.42 63.452C18.42 64.348 18.168 64.9967 17.664 65.398C17.16 65.7993 16.362 66 15.27 66H11.84V57.222H15.27C16.2593 57.222 16.9593 57.39 17.37 57.726C17.79 58.062 18 58.636 18 59.448C18 59.9987 17.916 60.4187 17.748 60.708C17.58 60.9973 17.272 61.2073 16.824 61.338C17.356 61.4313 17.7527 61.6553 18.014 62.01C18.2847 62.3553 18.42 62.836 18.42 63.452ZM16.446 59.686C16.446 59.2847 16.3573 59.0093 16.18 58.86C16.012 58.7013 15.7087 58.622 15.27 58.622H13.52V60.89H15.27C15.69 60.89 15.9887 60.7967 16.166 60.61C16.3527 60.4233 16.446 60.1153 16.446 59.686ZM16.796 63.34C16.796 62.9107 16.6793 62.612 16.446 62.444C16.222 62.276 15.83 62.192 15.27 62.192H13.52V64.544H15.27C15.83 64.544 16.222 64.4553 16.446 64.278C16.6793 64.1007 16.796 63.788 16.796 63.34ZM25.9183 62.528C25.9183 63.8347 25.6663 64.7633 25.1623 65.314C24.6676 65.8553 23.8183 66.126 22.6143 66.126C21.3916 66.126 20.533 65.86 20.0383 65.328C19.5436 64.7867 19.2963 63.8533 19.2963 62.528C19.2963 61.2307 19.5483 60.3113 20.0523 59.77C20.5563 59.2193 21.4103 58.944 22.6143 58.944C23.8276 58.944 24.6816 59.2147 25.1763 59.756C25.671 60.288 25.9183 61.212 25.9183 62.528ZM20.9203 62.514C20.9203 63.3727 21.0276 63.9373 21.2423 64.208C21.457 64.4787 21.9143 64.614 22.6143 64.614C23.2956 64.614 23.7436 64.4787 23.9583 64.208C24.1823 63.928 24.2943 63.3633 24.2943 62.514C24.2943 61.646 24.187 61.0767 23.9723 60.806C23.767 60.5353 23.3143 60.4 22.6143 60.4C21.9236 60.4 21.4663 60.54 21.2423 60.82C21.0276 61.1 20.9203 61.6647 20.9203 62.514ZM31.4085 64.488V65.874C31.2498 65.9393 31.0258 65.9953 30.7365 66.042C30.4565 66.098 30.1998 66.126 29.9665 66.126C29.0798 66.126 28.4452 65.9347 28.0625 65.552C27.6798 65.16 27.4885 64.5113 27.4885 63.606V60.442H26.5645V59.084H27.5305L27.7545 57.432H29.1125V59.084H31.3245V60.442H29.1125V63.55C29.1125 63.9607 29.2012 64.2407 29.3785 64.39C29.5558 64.5393 29.8732 64.614 30.3305 64.614C30.4892 64.614 30.6758 64.6047 30.8905 64.586C31.1052 64.558 31.2778 64.5253 31.4085 64.488ZM36.6448 64.488V65.874C36.4862 65.9393 36.2622 65.9953 35.9728 66.042C35.6928 66.098 35.4362 66.126 35.2028 66.126C34.3162 66.126 33.6815 65.9347 33.2988 65.552C32.9162 65.16 32.7248 64.5113 32.7248 63.606V60.442H31.8008V59.084H32.7668L32.9908 57.432H34.3488V59.084H36.5608V60.442H34.3488V63.55C34.3488 63.9607 34.4375 64.2407 34.6148 64.39C34.7922 64.5393 35.1095 64.614 35.5668 64.614C35.7255 64.614 35.9122 64.6047 36.1268 64.586C36.3415 64.558 36.5142 64.5253 36.6448 64.488ZM39.2065 56.69V66H37.5825V56.69H39.2065ZM46.187 64.306V65.622C45.9537 65.762 45.585 65.8833 45.081 65.986C44.5864 66.0793 44.0684 66.126 43.527 66.126C42.4257 66.126 41.6324 65.846 41.147 65.286C40.671 64.726 40.433 63.802 40.433 62.514C40.433 61.2727 40.685 60.3673 41.189 59.798C41.693 59.2287 42.491 58.944 43.583 58.944C44.6377 58.944 45.3844 59.1633 45.823 59.602C46.2617 60.0407 46.481 60.792 46.481 61.856C46.481 62.052 46.4764 62.234 46.467 62.402C46.4577 62.5607 46.439 62.7847 46.411 63.074H42.071C42.0804 63.6527 42.2064 64.0587 42.449 64.292C42.701 64.5253 43.1444 64.642 43.779 64.642C44.199 64.642 44.633 64.6093 45.081 64.544C45.529 64.4787 45.8977 64.3993 46.187 64.306ZM43.583 60.358C43.0137 60.358 42.617 60.47 42.393 60.694C42.1784 60.918 42.071 61.324 42.071 61.912H44.997V61.618C44.9877 61.142 44.8804 60.8153 44.675 60.638C44.4697 60.4513 44.1057 60.358 43.583 60.358ZM50.3034 60.344C49.8087 60.344 49.468 60.3953 49.2814 60.498C49.104 60.5913 49.0154 60.8013 49.0154 61.128C49.0154 61.2867 49.0527 61.408 49.1274 61.492C49.202 61.5667 49.328 61.618 49.5054 61.646L51.2274 61.898C51.778 61.9727 52.1607 62.1453 52.3754 62.416C52.5994 62.6867 52.7114 63.116 52.7114 63.704C52.7114 64.5533 52.5154 65.1693 52.1234 65.552C51.7314 65.9347 51.064 66.126 50.1214 66.126C49.58 66.126 49.0854 66.1027 48.6374 66.056C48.1894 66.0093 47.8114 65.9393 47.5034 65.846V64.404C47.7927 64.4787 48.1474 64.544 48.5674 64.6C48.9874 64.6467 49.412 64.67 49.8414 64.67C50.3267 64.67 50.6534 64.6093 50.8214 64.488C50.9987 64.3667 51.0874 64.138 51.0874 63.802C51.0874 63.634 51.0454 63.508 50.9614 63.424C50.8774 63.3307 50.7374 63.27 50.5414 63.242L48.7914 62.99C48.3154 62.9247 47.9654 62.7473 47.7414 62.458C47.5174 62.1593 47.4054 61.73 47.4054 61.17C47.4054 60.414 47.634 59.854 48.0914 59.49C48.558 59.126 49.2627 58.944 50.2054 58.944C50.588 58.944 50.938 58.9533 51.2554 58.972C51.5727 58.9907 51.8994 59.028 52.2354 59.084V60.47C51.9927 60.4327 51.6987 60.4047 51.3534 60.386C51.0174 60.358 50.6674 60.344 50.3034 60.344ZM58.7116 60.344C58.2169 60.344 57.8762 60.3953 57.6896 60.498C57.5122 60.5913 57.4236 60.8013 57.4236 61.128C57.4236 61.2867 57.4609 61.408 57.5356 61.492C57.6102 61.5667 57.7362 61.618 57.9136 61.646L59.6356 61.898C60.1862 61.9727 60.5689 62.1453 60.7836 62.416C61.0076 62.6867 61.1196 63.116 61.1196 63.704C61.1196 64.5533 60.9236 65.1693 60.5316 65.552C60.1396 65.9347 59.4722 66.126 58.5296 66.126C57.9882 66.126 57.4936 66.1027 57.0456 66.056C56.5976 66.0093 56.2196 65.9393 55.9116 65.846V64.404C56.2009 64.4787 56.5556 64.544 56.9756 64.6C57.3956 64.6467 57.8202 64.67 58.2496 64.67C58.7349 64.67 59.0616 64.6093 59.2296 64.488C59.4069 64.3667 59.4956 64.138 59.4956 63.802C59.4956 63.634 59.4536 63.508 59.3696 63.424C59.2856 63.3307 59.1456 63.27 58.9496 63.242L57.1996 62.99C56.7236 62.9247 56.3736 62.7473 56.1496 62.458C55.9256 62.1593 55.8136 61.73 55.8136 61.17C55.8136 60.414 56.0422 59.854 56.4996 59.49C56.9662 59.126 57.6709 58.944 58.6136 58.944C58.9962 58.944 59.3462 58.9533 59.6636 58.972C59.9809 58.9907 60.3076 59.028 60.6436 59.084V60.47C60.4009 60.4327 60.1069 60.4047 59.7616 60.386C59.4256 60.358 59.0756 60.344 58.7116 60.344ZM63.9116 66.126C63.2022 66.126 62.6796 65.9533 62.3436 65.608C62.0169 65.2533 61.8536 64.7027 61.8536 63.956C61.8536 63.1907 62.0496 62.6493 62.4416 62.332C62.8429 62.0147 63.5289 61.856 64.4996 61.856C64.7702 61.856 65.0456 61.87 65.3256 61.898C65.6056 61.926 65.8482 61.9633 66.0536 62.01V61.422C66.0536 61.058 65.9416 60.792 65.7176 60.624C65.4936 60.456 65.1389 60.372 64.6536 60.372C64.2149 60.372 63.8229 60.386 63.4776 60.414C63.1416 60.442 62.8196 60.4887 62.5116 60.554V59.196C62.8662 59.112 63.2489 59.0513 63.6596 59.014C64.0796 58.9673 64.5742 58.944 65.1436 58.944C65.9929 58.944 66.6276 59.14 67.0476 59.532C67.4676 59.9147 67.6776 60.4933 67.6776 61.268V66H66.1796L66.1096 65.384H66.0816C65.7829 65.608 65.4376 65.79 65.0456 65.93C64.6629 66.0607 64.2849 66.126 63.9116 66.126ZM64.6956 63.018C64.1916 63.018 63.8462 63.0787 63.6596 63.2C63.4729 63.312 63.3796 63.5313 63.3796 63.858C63.3796 64.1753 63.4542 64.404 63.6036 64.544C63.7622 64.6747 64.0282 64.74 64.4016 64.74C64.6722 64.74 64.9569 64.7027 65.2556 64.628C65.5636 64.544 65.8296 64.4413 66.0536 64.32V63.13C65.8296 63.0927 65.6056 63.0647 65.3816 63.046C65.1669 63.0273 64.9382 63.018 64.6956 63.018ZM73.4385 59.084H75.2165L72.6965 66H70.8345L68.3005 59.084H70.0925L71.7725 64.516L73.4385 59.084ZM81.3238 64.306V65.622C81.0904 65.762 80.7218 65.8833 80.2178 65.986C79.7231 66.0793 79.2051 66.126 78.6638 66.126C77.5624 66.126 76.7691 65.846 76.2838 65.286C75.8078 64.726 75.5698 63.802 75.5698 62.514C75.5698 61.2727 75.8218 60.3673 76.3258 59.798C76.8298 59.2287 77.6278 58.944 78.7198 58.944C79.7744 58.944 80.5211 59.1633 80.9598 59.602C81.3984 60.0407 81.6178 60.792 81.6178 61.856C81.6178 62.052 81.6131 62.234 81.6038 62.402C81.5944 62.5607 81.5758 62.7847 81.5478 63.074H77.2078C77.2171 63.6527 77.3431 64.0587 77.5858 64.292C77.8378 64.5253 78.2811 64.642 78.9158 64.642C79.3358 64.642 79.7698 64.6093 80.2178 64.544C80.6658 64.4787 81.0344 64.3993 81.3238 64.306ZM78.7198 60.358C78.1504 60.358 77.7538 60.47 77.5298 60.694C77.3151 60.918 77.2078 61.324 77.2078 61.912H80.1338V61.618C80.1244 61.142 80.0171 60.8153 79.8118 60.638C79.6064 60.4513 79.2424 60.358 78.7198 60.358ZM87.2741 56.69H88.8981V66H87.4701L87.3721 65.356H87.3021C87.0407 65.6173 86.7281 65.8133 86.3641 65.944C86.0094 66.0653 85.5987 66.126 85.1321 66.126C84.2081 66.126 83.5454 65.846 83.1441 65.286C82.7521 64.726 82.5561 63.8067 82.5561 62.528C82.5561 61.268 82.7987 60.358 83.2841 59.798C83.7787 59.2287 84.5907 58.944 85.7201 58.944C86.0187 58.944 86.2987 58.9673 86.5601 59.014C86.8307 59.0513 87.0687 59.1073 87.2741 59.182V56.69ZM85.9441 60.4C85.2254 60.4 84.7494 60.5447 84.5161 60.834C84.2921 61.1233 84.1801 61.688 84.1801 62.528C84.1801 63.34 84.2781 63.8907 84.4741 64.18C84.6794 64.4693 85.0947 64.614 85.7201 64.614C86.0187 64.614 86.2987 64.586 86.5601 64.53C86.8214 64.4647 87.0594 64.3713 87.2741 64.25V60.638C87.0781 60.554 86.8727 60.4933 86.6581 60.456C86.4434 60.4187 86.2054 60.4 85.9441 60.4Z" fill="#08366A"/>
</svg>
