<svg width="100" height="100" viewBox="0 0 100 100" fill="none" xmlns="http://www.w3.org/2000/svg">
<path d="M37.976 43.784V46.304H36.128V50H33.248V46.304H26.696V43.784L28.472 34.952H31.232L29.624 43.784H33.248V37.592H36.128V43.784H37.976ZM48.7648 45.512C48.7648 47.032 48.3408 48.2 47.4928 49.016C46.6608 49.816 45.4608 50.216 43.8928 50.216C42.8368 50.216 41.9168 50.168 41.1328 50.072C40.3488 49.992 39.7408 49.872 39.3088 49.712V47.168C39.8848 47.28 40.4768 47.368 41.0848 47.432C41.7088 47.48 42.3808 47.504 43.1008 47.504C44.1088 47.504 44.8208 47.352 45.2368 47.048C45.6688 46.728 45.8848 46.2 45.8848 45.464C45.8848 44.728 45.6848 44.216 45.2848 43.928C44.9008 43.64 44.1408 43.496 43.0048 43.496C42.3808 43.496 41.8208 43.52 41.3248 43.568C40.8448 43.6 40.3888 43.656 39.9568 43.736V34.952H47.8048V37.544H42.8368V41.192C43.1888 41.16 43.5008 41.136 43.7728 41.12C44.0608 41.104 44.3328 41.096 44.5888 41.096C46.0768 41.096 47.1408 41.456 47.7808 42.176C48.4368 42.88 48.7648 43.992 48.7648 45.512ZM53.0849 50H50.3729V47.336H53.0849V50ZM64.0878 47.288V50H54.6078V47.288L59.8878 41.552C60.3358 41.072 60.6478 40.632 60.8238 40.232C61.0158 39.832 61.1118 39.408 61.1118 38.96C61.1118 38.432 60.9598 38.024 60.6558 37.736C60.3678 37.448 59.9358 37.304 59.3598 37.304C58.7518 37.304 57.9838 37.368 57.0558 37.496C56.1438 37.608 55.5678 37.704 55.3278 37.784V35.264C55.9518 35.088 56.6638 34.952 57.4638 34.856C58.2638 34.76 59.0638 34.712 59.8638 34.712C61.1758 34.712 62.1918 35.056 62.9118 35.744C63.6318 36.416 63.9918 37.36 63.9918 38.576C63.9918 39.376 63.8558 40.104 63.5838 40.76C63.3118 41.4 62.8558 42.064 62.2158 42.752L58.0158 47.288H64.0878ZM75.8011 47.288V50H66.3931V34.952H69.2731V47.288H75.8011Z" fill="#F93939"/>
<path d="M23.9674 64.25V65.608C23.7247 65.748 23.3607 65.8693 22.8754 65.972C22.3994 66.0747 21.9047 66.126 21.3914 66.126C20.4021 66.126 19.7067 65.86 19.3054 65.328C18.9041 64.796 18.7034 63.8627 18.7034 62.528C18.7034 61.212 18.9601 60.288 19.4734 59.756C19.9961 59.2147 20.8921 58.944 22.1614 58.944C22.4694 58.944 22.7447 58.9533 22.9874 58.972C23.2394 58.9813 23.5054 59.0047 23.7854 59.042V60.484C23.4214 60.456 23.1041 60.4373 22.8334 60.428C22.5627 60.4093 22.3387 60.4 22.1614 60.4C21.3961 60.4 20.8967 60.5353 20.6634 60.806C20.4394 61.0767 20.3274 61.6507 20.3274 62.528C20.3274 63.3773 20.4161 63.9373 20.5934 64.208C20.7801 64.4787 21.1627 64.614 21.7414 64.614C22.1241 64.614 22.5161 64.5813 22.9174 64.516C23.3281 64.4413 23.6781 64.3527 23.9674 64.25ZM31.3407 62.528C31.3407 63.8347 31.0887 64.7633 30.5847 65.314C30.09 65.8553 29.2407 66.126 28.0367 66.126C26.814 66.126 25.9554 65.86 25.4607 65.328C24.966 64.7867 24.7187 63.8533 24.7187 62.528C24.7187 61.2307 24.9707 60.3113 25.4747 59.77C25.9787 59.2193 26.8327 58.944 28.0367 58.944C29.25 58.944 30.104 59.2147 30.5987 59.756C31.0934 60.288 31.3407 61.212 31.3407 62.528ZM26.3427 62.514C26.3427 63.3727 26.45 63.9373 26.6647 64.208C26.8794 64.4787 27.3367 64.614 28.0367 64.614C28.718 64.614 29.166 64.4787 29.3807 64.208C29.6047 63.928 29.7167 63.3633 29.7167 62.514C29.7167 61.646 29.6094 61.0767 29.3947 60.806C29.1894 60.5353 28.7367 60.4 28.0367 60.4C27.346 60.4 26.8887 60.54 26.6647 60.82C26.45 61.1 26.3427 61.6647 26.3427 62.514ZM37.6969 64.418V66H32.1669V64.418L35.2469 61.072C35.5082 60.792 35.6902 60.5353 35.7929 60.302C35.9049 60.0687 35.9609 59.8213 35.9609 59.56C35.9609 59.252 35.8722 59.014 35.6949 58.846C35.5269 58.678 35.2749 58.594 34.9389 58.594C34.5842 58.594 34.1362 58.6313 33.5949 58.706C33.0629 58.7713 32.7269 58.8273 32.5869 58.874V57.404C32.9509 57.3013 33.3662 57.222 33.8329 57.166C34.2996 57.11 34.7662 57.082 35.2329 57.082C35.9982 57.082 36.5909 57.2827 37.0109 57.684C37.4309 58.076 37.6409 58.6267 37.6409 59.336C37.6409 59.8027 37.5616 60.2273 37.4029 60.61C37.2442 60.9833 36.9782 61.3707 36.6049 61.772L34.1549 64.418H37.6969ZM43.8039 60.344C43.3092 60.344 42.9685 60.3953 42.7819 60.498C42.6045 60.5913 42.5159 60.8013 42.5159 61.128C42.5159 61.2867 42.5532 61.408 42.6279 61.492C42.7025 61.5667 42.8285 61.618 43.0059 61.646L44.7279 61.898C45.2785 61.9727 45.6612 62.1453 45.8759 62.416C46.0999 62.6867 46.2119 63.116 46.2119 63.704C46.2119 64.5533 46.0159 65.1693 45.6239 65.552C45.2319 65.9347 44.5645 66.126 43.6219 66.126C43.0805 66.126 42.5859 66.1027 42.1379 66.056C41.6899 66.0093 41.3119 65.9393 41.0039 65.846V64.404C41.2932 64.4787 41.6479 64.544 42.0679 64.6C42.4879 64.6467 42.9125 64.67 43.3419 64.67C43.8272 64.67 44.1539 64.6093 44.3219 64.488C44.4992 64.3667 44.5879 64.138 44.5879 63.802C44.5879 63.634 44.5459 63.508 44.4619 63.424C44.3779 63.3307 44.2379 63.27 44.0419 63.242L42.2919 62.99C41.8159 62.9247 41.4659 62.7473 41.2419 62.458C41.0179 62.1593 40.9059 61.73 40.9059 61.17C40.9059 60.414 41.1345 59.854 41.5919 59.49C42.0585 59.126 42.7632 58.944 43.7059 58.944C44.0885 58.944 44.4385 58.9533 44.7559 58.972C45.0732 58.9907 45.3999 59.028 45.7359 59.084V60.47C45.4932 60.4327 45.1992 60.4047 44.8539 60.386C44.5179 60.358 44.1679 60.344 43.8039 60.344ZM49.0039 66.126C48.2945 66.126 47.7719 65.9533 47.4359 65.608C47.1092 65.2533 46.9459 64.7027 46.9459 63.956C46.9459 63.1907 47.1419 62.6493 47.5339 62.332C47.9352 62.0147 48.6212 61.856 49.5919 61.856C49.8625 61.856 50.1379 61.87 50.4179 61.898C50.6979 61.926 50.9405 61.9633 51.1459 62.01V61.422C51.1459 61.058 51.0339 60.792 50.8099 60.624C50.5859 60.456 50.2312 60.372 49.7459 60.372C49.3072 60.372 48.9152 60.386 48.5699 60.414C48.2339 60.442 47.9119 60.4887 47.6039 60.554V59.196C47.9585 59.112 48.3412 59.0513 48.7519 59.014C49.1719 58.9673 49.6665 58.944 50.2359 58.944C51.0852 58.944 51.7199 59.14 52.1399 59.532C52.5599 59.9147 52.7699 60.4933 52.7699 61.268V66H51.2719L51.2019 65.384H51.1739C50.8752 65.608 50.5299 65.79 50.1379 65.93C49.7552 66.0607 49.3772 66.126 49.0039 66.126ZM49.7879 63.018C49.2839 63.018 48.9385 63.0787 48.7519 63.2C48.5652 63.312 48.4719 63.5313 48.4719 63.858C48.4719 64.1753 48.5465 64.404 48.6959 64.544C48.8545 64.6747 49.1205 64.74 49.4939 64.74C49.7645 64.74 50.0492 64.7027 50.3479 64.628C50.6559 64.544 50.9219 64.4413 51.1459 64.32V63.13C50.9219 63.0927 50.6979 63.0647 50.4739 63.046C50.2592 63.0273 50.0305 63.018 49.7879 63.018ZM58.5308 59.084H60.3088L57.7888 66H55.9268L53.3928 59.084H55.1848L56.8648 64.516L58.5308 59.084ZM66.4161 64.306V65.622C66.1827 65.762 65.8141 65.8833 65.3101 65.986C64.8154 66.0793 64.2974 66.126 63.7561 66.126C62.6547 66.126 61.8614 65.846 61.3761 65.286C60.9001 64.726 60.6621 63.802 60.6621 62.514C60.6621 61.2727 60.9141 60.3673 61.4181 59.798C61.9221 59.2287 62.7201 58.944 63.8121 58.944C64.8667 58.944 65.6134 59.1633 66.0521 59.602C66.4907 60.0407 66.7101 60.792 66.7101 61.856C66.7101 62.052 66.7054 62.234 66.6961 62.402C66.6867 62.5607 66.6681 62.7847 66.6401 63.074H62.3001C62.3094 63.6527 62.4354 64.0587 62.6781 64.292C62.9301 64.5253 63.3734 64.642 64.0081 64.642C64.4281 64.642 64.8621 64.6093 65.3101 64.544C65.7581 64.4787 66.1267 64.3993 66.4161 64.306ZM63.8121 60.358C63.2427 60.358 62.8461 60.47 62.6221 60.694C62.4074 60.918 62.3001 61.324 62.3001 61.912H65.2261V61.618C65.2167 61.142 65.1094 60.8153 64.9041 60.638C64.6987 60.4513 64.3347 60.358 63.8121 60.358ZM72.3664 56.69H73.9904V66H72.5624L72.4644 65.356H72.3944C72.133 65.6173 71.8204 65.8133 71.4564 65.944C71.1017 66.0653 70.691 66.126 70.2244 66.126C69.3004 66.126 68.6377 65.846 68.2364 65.286C67.8444 64.726 67.6484 63.8067 67.6484 62.528C67.6484 61.268 67.891 60.358 68.3764 59.798C68.871 59.2287 69.683 58.944 70.8124 58.944C71.111 58.944 71.391 58.9673 71.6524 59.014C71.923 59.0513 72.161 59.1073 72.3664 59.182V56.69ZM71.0364 60.4C70.3177 60.4 69.8417 60.5447 69.6084 60.834C69.3844 61.1233 69.2724 61.688 69.2724 62.528C69.2724 63.34 69.3704 63.8907 69.5664 64.18C69.7717 64.4693 70.187 64.614 70.8124 64.614C71.111 64.614 71.391 64.586 71.6524 64.53C71.9137 64.4647 72.1517 64.3713 72.3664 64.25V60.638C72.1704 60.554 71.965 60.4933 71.7504 60.456C71.5357 60.4187 71.2977 60.4 71.0364 60.4Z" fill="#08366A"/>
<path d="M100 50C100 77.6142 77.6142 100 50 100C22.3858 100 0 77.6142 0 50C0 22.3858 22.3858 0 50 0C77.6142 0 100 22.3858 100 50ZM5 50C5 74.8528 25.1472 95 50 95C74.8528 95 95 74.8528 95 50C95 25.1472 74.8528 5 50 5C25.1472 5 5 25.1472 5 50Z" fill="#979797"/>
<path d="M40.9102 96.6222C40.646 97.9774 41.53 99.2967 42.8967 99.4929C51.963 100.794 61.2305 99.5818 69.6799 95.9641C78.8967 92.0179 86.7143 85.3919 92.1176 76.9463C97.521 68.5008 100.26 58.6259 99.9805 48.6036C99.7005 38.5814 96.4139 28.8749 90.5475 20.7442C84.681 12.6135 76.5057 6.43427 67.0829 3.00877C57.6601 -0.416729 47.4251 -0.930275 37.7067 1.53481C27.9883 3.99989 19.2355 9.32974 12.5847 16.8324C6.48763 23.7102 2.41524 32.1228 0.791772 41.137C0.547042 42.4959 1.52041 43.7508 2.88979 43.9273C4.25917 44.1038 5.5053 43.135 5.75757 41.7775C7.24799 33.7576 10.8943 26.2766 16.3262 20.1491C22.312 13.3968 30.1895 8.5999 38.936 6.38133C47.6826 4.16275 56.8941 4.62494 65.3746 7.70789C73.8551 10.7908 81.2129 16.3521 86.4927 23.6698C91.7725 30.9874 94.7304 39.7233 94.9824 48.7433C95.2345 57.7633 92.7689 66.6507 87.9059 74.2517C83.0429 81.8527 76.007 87.8161 67.7119 91.3677C60.1843 94.5907 51.9353 95.6925 43.8545 94.5784C42.4867 94.3898 41.1744 95.267 40.9102 96.6222Z" fill="#F93939"/>
</svg>
