<svg width="375" height="118" viewBox="0 0 375 118" fill="none" xmlns="http://www.w3.org/2000/svg">
<path d="M36.0166 79C36.0166 76.2386 38.2552 74 41.0166 74H53.0166C55.778 74 58.0166 76.2386 58.0166 79V117H36.0166V79Z" fill="#08366A" fill-opacity="0.47"/>
<path d="M76.0166 58C76.0166 55.2386 78.2552 53 81.0166 53H93.0166C95.778 53 98.0166 55.2386 98.0166 58V117H76.0166V58Z" fill="#08366A" fill-opacity="0.19"/>
<path d="M116.017 76C116.017 73.2386 118.255 71 121.017 71H133.017C135.778 71 138.017 73.2386 138.017 76V117H116.017V76Z" fill="#08366A" fill-opacity="0.47"/>
<path d="M156.017 95C156.017 92.2386 158.255 90 161.017 90H173.017C175.778 90 178.017 92.2386 178.017 95V117H156.017V95Z" fill="#08366A" fill-opacity="0.19"/>
<path d="M196.017 38C196.017 35.2386 198.255 33 201.017 33H213.017C215.778 33 218.017 35.2386 218.017 38V117H196.017V38Z" fill="#08366A" fill-opacity="0.47"/>
<path d="M236.017 61C236.017 58.2386 238.255 56 241.017 56H253.017C255.778 56 258.017 58.2386 258.017 61V117H236.017V61Z" fill="#08366A" fill-opacity="0.19"/>
<path d="M316.017 5C316.017 2.23858 318.255 0 321.017 0H333.017C335.778 0 338.017 2.23858 338.017 5V117H316.017V5Z" fill="#08366A" fill-opacity="0.19"/>
<path d="M356.017 79C356.017 76.2386 358.255 74 361.017 74H373.017C375.778 74 378.017 76.2386 378.017 79V117H356.017V79Z" fill="#08366A" fill-opacity="0.47"/>
<path d="M276.017 49C276.017 46.2386 278.255 44 281.017 44H293.017C295.778 44 298.017 46.2386 298.017 49V117H276.017V49Z" fill="#08366A" fill-opacity="0.47"/>
<path d="M-3.9834 30C-3.9834 27.2386 -1.74482 25 1.0166 25H13.0166C15.778 25 18.0166 27.2386 18.0166 30V117H-3.9834V30Z" fill="#08366A" fill-opacity="0.19"/>
<line x1="-4" y1="117" x2="371.033" y2="117" stroke="#08366A" stroke-opacity="0.44"/>
</svg>
